<svg width="498" height="502" viewBox="0 0 498 502" fill="none" xmlns="http://www.w3.org/2000/svg">
<g filter="url(#filter0_i_1_61)">
<ellipse cx="234" cy="251" rx="234" ry="251" fill="url(#paint0_linear_1_61)"/>
</g>
<g filter="url(#filter1_d_1_61)">
<path d="M376.562 116.031C376.555 108.55 373.579 101.377 368.289 96.0862C362.998 90.7958 355.825 87.8203 348.344 87.8125H216.656C209.175 87.8203 202.002 90.7958 196.711 96.0862C191.421 101.377 188.445 108.55 188.438 116.031V322.969C188.445 330.45 191.421 337.623 196.711 342.914C202.002 348.204 209.175 351.18 216.656 351.188H348.344C355.825 351.18 362.998 348.204 368.289 342.914C373.579 337.623 376.555 330.45 376.562 322.969V116.031ZM230.766 322.969C227.975 322.969 225.247 322.141 222.927 320.591C220.607 319.041 218.798 316.837 217.73 314.259C216.662 311.681 216.383 308.844 216.927 306.107C217.472 303.37 218.816 300.856 220.789 298.883C222.762 296.909 225.276 295.566 228.013 295.021C230.75 294.477 233.587 294.756 236.165 295.824C238.743 296.892 240.947 298.7 242.497 301.021C244.048 303.341 244.875 306.069 244.875 308.859C244.875 312.601 243.388 316.19 240.742 318.836C238.096 321.482 234.508 322.969 230.766 322.969ZM230.766 275.938C227.975 275.938 225.247 275.11 222.927 273.56C220.607 272.009 218.798 269.806 217.73 267.228C216.662 264.649 216.383 261.812 216.927 259.076C217.472 256.339 218.816 253.825 220.789 251.851C222.762 249.878 225.276 248.534 228.013 247.99C230.75 247.445 233.587 247.725 236.165 248.793C238.743 249.861 240.947 251.669 242.497 253.989C244.048 256.31 244.875 259.038 244.875 261.828C244.875 265.57 243.388 269.159 240.742 271.805C238.096 274.451 234.508 275.938 230.766 275.938ZM230.766 228.906C227.975 228.906 225.247 228.079 222.927 226.528C220.607 224.978 218.798 222.774 217.73 220.196C216.662 217.618 216.383 214.781 216.927 212.044C217.472 209.307 218.816 206.793 220.789 204.82C222.762 202.847 225.276 201.503 228.013 200.959C230.75 200.414 233.587 200.694 236.165 201.762C238.743 202.829 240.947 204.638 242.497 206.958C244.048 209.278 244.875 212.006 244.875 214.797C244.875 218.539 243.388 222.128 240.742 224.774C238.096 227.42 234.508 228.906 230.766 228.906ZM282.5 322.969C279.709 322.969 276.982 322.141 274.661 320.591C272.341 319.041 270.533 316.837 269.465 314.259C268.397 311.681 268.117 308.844 268.662 306.107C269.206 303.37 270.55 300.856 272.523 298.883C274.496 296.909 277.01 295.566 279.747 295.021C282.484 294.477 285.321 294.756 287.899 295.824C290.478 296.892 292.681 298.7 294.232 301.021C295.782 303.341 296.609 306.069 296.609 308.859C296.609 312.601 295.123 316.19 292.477 318.836C289.831 321.482 286.242 322.969 282.5 322.969ZM282.5 275.938C279.709 275.938 276.982 275.11 274.661 273.56C272.341 272.009 270.533 269.806 269.465 267.228C268.397 264.649 268.117 261.812 268.662 259.076C269.206 256.339 270.55 253.825 272.523 251.851C274.496 249.878 277.01 248.534 279.747 247.99C282.484 247.445 285.321 247.725 287.899 248.793C290.478 249.861 292.681 251.669 294.232 253.989C295.782 256.31 296.609 259.038 296.609 261.828C296.609 265.57 295.123 269.159 292.477 271.805C289.831 274.451 286.242 275.938 282.5 275.938ZM282.5 228.906C279.709 228.906 276.982 228.079 274.661 226.528C272.341 224.978 270.533 222.774 269.465 220.196C268.397 217.618 268.117 214.781 268.662 212.044C269.206 209.307 270.55 206.793 272.523 204.82C274.496 202.847 277.01 201.503 279.747 200.959C282.484 200.414 285.321 200.694 287.899 201.762C290.478 202.829 292.681 204.638 294.232 206.958C295.782 209.278 296.609 212.006 296.609 214.797C296.609 218.539 295.123 222.128 292.477 224.774C289.831 227.42 286.242 228.906 282.5 228.906ZM348.344 308.859C348.344 312.601 346.857 316.19 344.211 318.836C341.565 321.482 337.976 322.969 334.234 322.969C330.492 322.969 326.904 321.482 324.258 318.836C321.612 316.19 320.125 312.601 320.125 308.859V261.828C320.125 258.086 321.612 254.497 324.258 251.851C326.904 249.205 330.492 247.719 334.234 247.719C337.976 247.719 341.565 249.205 344.211 251.851C346.857 254.497 348.344 258.086 348.344 261.828V308.859ZM334.234 228.906C331.444 228.906 328.716 228.079 326.396 226.528C324.075 224.978 322.267 222.774 321.199 220.196C320.131 217.618 319.852 214.781 320.396 212.044C320.941 209.307 322.284 206.793 324.258 204.82C326.231 202.847 328.745 201.503 331.482 200.959C334.219 200.414 337.056 200.694 339.634 201.762C342.212 202.829 344.416 204.638 345.966 206.958C347.516 209.278 348.344 212.006 348.344 214.797C348.344 218.539 346.857 222.128 344.211 224.774C341.565 227.42 337.976 228.906 334.234 228.906ZM345.587 169.712C343.823 171.476 341.432 172.468 338.938 172.469H226.062C223.568 172.469 221.175 171.478 219.411 169.714C217.647 167.95 216.656 165.557 216.656 163.062V125.438C216.656 122.943 217.647 120.55 219.411 118.786C221.175 117.022 223.568 116.031 226.062 116.031H338.938C341.432 116.031 343.825 117.022 345.589 118.786C347.353 120.55 348.344 122.943 348.344 125.438V163.062C348.343 165.557 347.351 167.948 345.587 169.712Z" fill="url(#paint1_linear_1_61)"/>
</g>
<g filter="url(#filter2_n_1_61)">
<path d="M433.133 330.211C445 321.487 447.533 304.836 438.8 292.981C430.067 281.126 413.4 278.595 401.533 287.32L321.733 346.062H241.333C235.467 346.062 230.667 341.267 230.667 335.406C230.667 329.545 235.467 324.75 241.333 324.75H294.667C306.467 324.75 316 315.226 316 303.438C316 291.649 306.467 282.125 294.667 282.125H189.133C169.733 282.125 150.933 288.719 135.8 300.773L105.867 324.75H81.3333C69.5333 324.75 60 334.274 60 346.062V388.688C60 400.476 69.5333 410 81.3333 410H295C314.333 410 333.2 403.806 348.8 392.351L433.2 330.211H433.133Z" fill="url(#paint2_linear_1_61)"/>
<path d="M138.54 230.992L171.93 258.922V231.482L179 230.432V267.672L171.93 268.722L138.54 241.562V265.642L131.4 266.692V232.042L138.54 230.992ZM168.85 218.175C169.83 218.175 170.717 217.778 171.51 216.985C172.257 216.191 172.63 215.141 172.63 213.835C172.63 212.575 172.35 211.315 171.79 210.055C171.23 208.748 170.39 207.511 169.27 206.345H164.09V213.205C164.09 214.791 164.58 216.028 165.56 216.915C166.54 217.755 167.637 218.175 168.85 218.175ZM179.84 213.695C179.84 217.848 178.837 220.928 176.83 222.935C174.777 224.941 172.117 225.945 168.85 225.945C165.35 225.945 162.667 224.755 160.8 222.375C158.933 219.995 158 216.891 158 213.065V206.415C156.273 206.461 154.943 206.975 154.01 207.955C153.03 208.888 152.54 210.195 152.54 211.875C152.54 213.461 152.773 215.188 153.24 217.055C153.66 218.921 154.173 220.485 154.78 221.745L147.22 224.195C146.333 222.888 145.61 220.905 145.05 218.245C144.443 215.538 144.14 213.461 144.14 212.015C144.14 207.955 145.33 204.478 147.71 201.585C150.043 198.691 153.03 197.245 156.67 197.245H179V201.935L176.13 204.175C177.11 205.435 177.973 206.928 178.72 208.655C179.467 210.335 179.84 212.015 179.84 213.695ZM129.58 179.351H157.44L144.07 164.791L150.51 159.681L158.84 169.201L179 156.741V167.171L164.65 175.711L167.87 179.351H179V188.381H130.35L129.58 179.351ZM168.85 145.167C169.83 145.167 170.717 144.77 171.51 143.977C172.257 143.184 172.63 142.134 172.63 140.827C172.63 139.567 172.35 138.307 171.79 137.047C171.23 135.74 170.39 134.504 169.27 133.337H164.09V140.197C164.09 141.784 164.58 143.02 165.56 143.907C166.54 144.747 167.637 145.167 168.85 145.167ZM179.84 140.687C179.84 144.84 178.837 147.92 176.83 149.927C174.777 151.934 172.117 152.937 168.85 152.937C165.35 152.937 162.667 151.747 160.8 149.367C158.933 146.987 158 143.884 158 140.057V133.407C156.273 133.454 154.943 133.967 154.01 134.947C153.03 135.88 152.54 137.187 152.54 138.867C152.54 140.454 152.773 142.18 153.24 144.047C153.66 145.914 154.173 147.477 154.78 148.737L147.22 151.187C146.333 149.88 145.61 147.897 145.05 145.237C144.443 142.53 144.14 140.454 144.14 139.007C144.14 134.947 145.33 131.47 147.71 128.577C150.043 125.684 153.03 124.237 156.67 124.237H179V128.927L176.13 131.167C177.11 132.427 177.973 133.92 178.72 135.647C179.467 137.327 179.84 139.007 179.84 140.687ZM178.3 94.8631C178.907 95.6098 179.397 96.6831 179.77 98.0831C180.19 99.4365 180.4 100.65 180.4 101.723C180.4 105.923 179.35 109.236 177.25 111.663C175.103 114.043 172.07 115.233 168.15 115.233H152.12V119.783H145.12V115.233H137.07L135.46 106.203H145.12V100.043L152.12 97.2431V106.203H166.54C168.313 106.203 169.783 105.783 170.95 104.943C172.07 104.103 172.63 102.866 172.63 101.233C172.63 100.626 172.56 100.02 172.42 99.4131C172.28 98.8065 172.047 98.1765 171.72 97.5231L178.3 94.8631ZM180.61 83.2382L176.62 81.6282L146.31 93.7382L145.05 84.3582L165.63 76.5182L145.05 69.0982V59.5082L183.48 74.6982C186.233 75.7715 188.59 77.6615 190.55 80.3682C192.51 83.0749 193.84 85.9215 194.54 88.9082L187.05 92.1282C186.35 90.4949 185.487 88.7682 184.46 86.9482C183.48 85.0815 182.197 83.8449 180.61 83.2382Z" fill="url(#paint3_linear_1_61)"/>
</g>
<defs>
<filter id="filter0_i_1_61" x="0" y="0" width="472" height="506" filterUnits="userSpaceOnUse" color-interpolation-filters="sRGB">
<feFlood flood-opacity="0" result="BackgroundImageFix"/>
<feBlend mode="normal" in="SourceGraphic" in2="BackgroundImageFix" result="shape"/>
<feColorMatrix in="SourceAlpha" type="matrix" values="0 0 0 0 0 0 0 0 0 0 0 0 0 0 0 0 0 0 127 0" result="hardAlpha"/>
<feOffset dx="5" dy="10"/>
<feGaussianBlur stdDeviation="2"/>
<feComposite in2="hardAlpha" operator="arithmetic" k2="-1" k3="1"/>
<feColorMatrix type="matrix" values="0 0 0 0 0 0 0 0 0 0 0 0 0 0 0 0 0 0 0.25 0"/>
<feBlend mode="normal" in2="shape" result="effect1_innerShadow_1_61"/>
</filter>
<filter id="filter1_d_1_61" x="128" y="69" width="309" height="312" filterUnits="userSpaceOnUse" color-interpolation-filters="sRGB">
<feFlood flood-opacity="0" result="BackgroundImageFix"/>
<feColorMatrix in="SourceAlpha" type="matrix" values="0 0 0 0 0 0 0 0 0 0 0 0 0 0 0 0 0 0 127 0" result="hardAlpha"/>
<feOffset dy="7"/>
<feGaussianBlur stdDeviation="2"/>
<feComposite in2="hardAlpha" operator="out"/>
<feColorMatrix type="matrix" values="0 0 0 0 0 0 0 0 0 0 0 0 0 0 0 0 0 0 0.25 0"/>
<feBlend mode="normal" in2="BackgroundImageFix" result="effect1_dropShadow_1_61"/>
<feBlend mode="normal" in="SourceGraphic" in2="effect1_dropShadow_1_61" result="shape"/>
</filter>
<filter id="filter2_n_1_61" x="60" y="59.5082" width="384" height="350.492" filterUnits="userSpaceOnUse" color-interpolation-filters="sRGB">
<feFlood flood-opacity="0" result="BackgroundImageFix"/>
<feBlend mode="normal" in="SourceGraphic" in2="BackgroundImageFix" result="shape"/>
<feTurbulence type="fractalNoise" baseFrequency="2 2" stitchTiles="stitch" numOctaves="3" result="noise" seed="699" />
<feColorMatrix in="noise" type="luminanceToAlpha" result="alphaNoise" />
<feComponentTransfer in="alphaNoise" result="coloredNoise1">
<feFuncA type="discrete" tableValues="1 1 1 1 1 1 1 1 1 1 1 1 1 1 1 1 1 1 1 1 1 1 1 1 1 1 1 1 1 1 1 1 1 1 1 1 1 1 1 1 1 1 1 1 1 1 1 1 1 1 1 0 0 0 0 0 0 0 0 0 0 0 0 0 0 0 0 0 0 0 0 0 0 0 0 0 0 0 0 0 0 0 0 0 0 0 0 0 0 0 0 0 0 0 0 0 0 0 0 0 "/>
</feComponentTransfer>
<feComposite operator="in" in2="shape" in="coloredNoise1" result="noise1Clipped" />
<feFlood flood-color="rgba(0, 0, 0, 0.25)" result="color1Flood" />
<feComposite operator="in" in2="noise1Clipped" in="color1Flood" result="color1" />
<feMerge result="effect1_noise_1_61">
<feMergeNode in="shape" />
<feMergeNode in="color1" />
</feMerge>
</filter>
<linearGradient id="paint0_linear_1_61" x1="234" y1="0" x2="35" y2="379" gradientUnits="userSpaceOnUse">
<stop stop-color="#F0E171"/>
<stop offset="1" stop-color="#F5F5F5"/>
</linearGradient>
<linearGradient id="paint1_linear_1_61" x1="282.5" y1="87.8125" x2="282.5" y2="351.188" gradientUnits="userSpaceOnUse">
<stop stop-color="#01F609"/>
<stop offset="1" stop-color="#002901"/>
</linearGradient>
<linearGradient id="paint2_linear_1_61" x1="251.998" y1="282.125" x2="251.998" y2="410" gradientUnits="userSpaceOnUse">
<stop stop-color="#F5FE00"/>
<stop offset="1" stop-color="#545700"/>
</linearGradient>
<linearGradient id="paint3_linear_1_61" x1="179" y1="62" x2="137" y2="276" gradientUnits="userSpaceOnUse">
<stop stop-color="#002901"/>
<stop offset="0.9999" stop-color="#01F609"/>
</linearGradient>
</defs>
</svg>
